#!OML:ASF H:\BabyWalks\Project 1\Capture day 1\Session 1\baby.ASF
:FULLY-SPECIFIED
:DEGREES
285
root -16.1323 18.1098 -1.41575 148.391 101.179 135.827
lowerback 17.6782 1.34978 1.16599
upperback 5.27617 2.24545 0.394236
thorax -4.21709 1.20682 -0.719291
lowerneck -2.15687 3.34473 10.186
upperneck 0.0144894 4.27009 -6.98581
head 0.801931 2.1059 -4.05339
rclavicle -1.07344e-014 9.54166e-015
rhumerus -49.0195 15.6177 -82.0154
rradius 56.7746
rwrist -15.5796
rhand -9.62834 -13.3739
rfingers 7.12502
rthumb 16.3415 -42.7054
lclavicle -1.07344e-014 9.54166e-015
lhumerus -55.6711 -5.71873 81.1524
lradius 41.0503
lwrist -1.04252
lhand 7.76257 15.8443
lfingers 7.12502
lthumb 33.0013 42.8442
rfemur -5.96201 1.99828 25.8537
rtibia 26.4554
rfoot -8.0193 2.67205
rtoes -20.0263
lfemur -28.7208 6.34043 -11.5049
ltibia 37.7246
lfoot -17.7323 3.99243
ltoes -7.95677
286
root -15.9534 18.0716 -1.43658 149.672 101.81 137.38
lowerback 17.6284 1.27628 0.861654
upperback 5.32946 2.08626 0.225883
thorax -4.14103 1.13029 -0.689417
lowerneck -2.1936 3.58023 10.1521
upperneck 0.105006 4.58088 -6.6874
head 0.857079 2.26369 -3.93065
rclavicle -3.10104e-014 4.77083e-015
rhumerus -49.1407 15.6931 -81.948
rradius 56.6763
rwrist -15.5199
rhand -9.58331 -13.3705
rfingers 7.12502
rthumb 16.3849 -42.6984
lclavicle -3.10104e-014 4.77083e-015
lhumerus -55.3622 -5.9312 80.9234
lradius 41.4453
lwrist -0.765095
lhand 7.27066 15.4204
lfingers 7.12502
lthumb 32.5333 42.5179
rfemur -6.66947 1.82084 25.5997
rtibia 29.1912
rfoot -7.32012 3.81884
rtoes -20.3925
lfemur -27.3613 6.38619 -11.4473
ltibia 37.4695
lfoot -18.6898 4.75615
ltoes -7.2698
287
root -15.7772 18.0312 -1.45838 150.956 102.422 138.955
lowerback 17.6261 1.19485 0.521855
upperback 5.38557 1.91219 0.0507802
thorax -4.08741 1.04637 -0.64503
lowerneck -2.21894 3.81408 10.1042
upperneck 0.158171 4.89002 -6.39681
head 0.896317 2.4206 -3.80856
rclavicle 3.85642e-014 -3.97569e-015
rhumerus -49.2634 15.7494 -81.8536
rradius 56.5271
rwrist -15.4511
rhand -9.57721 -13.3733
rfingers 7.12502
rthumb 16.3907 -42.7008
lclavicle 3.85642e-014 -3.97569e-015
lhumerus -55.0305 -6.16548 80.6838
lradius 41.8776
lwrist -0.499662
lhand 6.75939 15.0316
lfingers 7.12502
lthumb 32.0466 42.2282
rfemur -7.48068 1.69123 25.2947
rtibia 32.0747
rfoot -6.45526 4.78512
rtoes -20.6003
lfemur -25.9491 6.43932 -11.4564
ltibia 37.1748
lfoot -19.778 5.57248
ltoes -6.71001
288
root -15.6036 17.9897 -1.4808 152.262 103.005 140.575
lowerback 17.6769 1.10711 0.139193
upperback 5.4435 1.72353 -0.131662
thorax -4.05987 0.955293 -0.582534
lowerneck -2.21838 4.04341 10.0419
upperneck 0.158243 5.1951 -6.11866
head 0.91188 2.57525 -3.6893
rclavicle 2.26615e-014 -1.98785e-014
rhumerus -49.3902 15.7819 -81.7349
rradius 56.3229
rwrist -15.3646
rhand -9.61451 -13.3935
rfingers 7.12502
rthumb 16.3548 -42.7239
lclavicle 2.26615e-014 -1.98785e-014
lhumerus -54.6586 -6.41144 80.4153
lradius 42.3277
lwrist -0.264558
lhand 6.26565 14.6671
lfingers 7.12502
lthumb 31.5764 41.9571
rfemur -8.37727 1.62562 24.9397
rtibia 35.0698
rfoot -5.49821 5.48651
rtoes -20.766
lfemur -24.4949 6.49707 -11.5406
ltibia 36.8178
lfoot -20.9142 6.4355
ltoes -6.35805
289
root -15.4325 17.9491 -1.50304 153.64 103.538 142.296
lowerback 17.7896 1.01427 -0.308712
upperback 5.50195 1.5172 -0.323728
thorax -4.0643 0.855705 -0.490902
lowerneck -2.17098 4.26704 9.95645
upperneck 0.0871854 5.49682 -5.85426
head 0.894079 2.72782 -3.57247
rclavicle 1.82882e-014 -9.54166e-015
rhumerus -49.5324 15.7878 -81.5981
rradius 56.0637
rwrist -15.2578
rhand -9.72151 -13.4274
rfingers 7.12502
rthumb 16.2518 -42.7663
lclavicle 1.82882e-014 -9.54166e-015
lhumerus -54.2311 -6.65231 80.1002
lradius 42.7742
lwrist -0.0894428
lhand 5.81182 14.3033
lfingers 7.12502
lthumb 31.144 41.6772
rfemur -9.3374 1.62963 24.5244
rtibia 38.1471
rfoot -4.57464 5.86615
rtoes -20.8429
lfemur -23.0132 6.55893 -11.7218
ltibia 36.3855
lfoot -21.9912 7.28726
ltoes -6.06542
290
root -15.264 17.911 -1.52425 155.21 103.992 144.233
lowerback 17.9582 0.92414 -0.855278
upperback 5.5565 1.29572 -0.53531
thorax -4.10164 0.749051 -0.361638
lowerneck -2.05808 4.47672 9.85253
upperneck -0.0683279 5.78597 -5.61004
head 0.835085 2.87352 -3.46249
rclavicle 5.56597e-015 -1.74931e-014
rhumerus -49.6977 15.7441 -81.4482
rradius 55.739
rwrist -15.1083
rhand -9.90722 -13.4868
rfingers 7.12502
rthumb 16.073 -42.8401
lclavicle 5.56597e-015 -1.74931e-014
lhumerus -53.7337 -6.89161 79.721
lradius 43.2087
lwrist 0.00698738
lhand 5.43015 13.9542
lfingers 7.12502
lthumb 30.7802 41.3974
rfemur -10.356 1.69215 24.0173
rtibia 41.2802
rfoot -3.82056 5.9161
rtoes -20.8686
lfemur -21.5301 6.62714 -12.0414
ltibia 35.877
lfoot -22.9449 8.07281
ltoes -5.80595
291
root -15.0982 17.8761 -1.54315 157.092 104.34 146.498
lowerback 18.1685 0.842033 -1.54665
upperback 5.60958 1.05677 -0.76829
thorax -4.16092 0.634602 -0.169327
lowerneck -1.88772 4.67238 9.71909
upperneck -0.31258 6.06208 -5.38899
head 0.735032 3.01179 -3.35878
rclavicle -2.62396e-014 1.11319e-014
rhumerus -49.8746 15.6528 -81.2847
rradius 55.334
rwrist -14.9121
rhand -10.1835 -13.5918
rfingers 7.12502
rthumb 15.8069 -42.9665
lclavicle -2.62396e-014 1.11319e-014
lhumerus -53.1317 -7.09936 79.259
lradius 43.6103
lwrist -0.00914299
lhand 5.13879 13.6082
lfingers 7.12502
lthumb 30.5023 41.1033
rfemur -11.4357 1.7944 23.3868
rtibia 44.4413
rfoot -3.34516 5.66026
rtoes -20.748
lfemur -20.0749 6.70599 -12.5388
ltibia 35.308
lfoot -23.7285 8.81002
ltoes -5.59039
292
root -14.9353 17.8446 -1.55841 159.307 104.559 149.096
lowerback 18.4069 0.766663 -2.39262
upperback 5.65859 0.795514 -1.02125
thorax -4.2353 0.510351 0.0946076
lowerneck -1.67941 4.85185 9.5528
upperneck -0.628802 6.32055 -5.18914
head 0.60266 3.14035 -3.26011
rclavicle -2.38542e-014 -1.90833e-014
rhumerus -50.0602 15.5058 -81.1134
rradius 54.8344
rwrist -14.6537
rhand -10.5625 -13.7488
rfingers 7.12502
rthumb 15.4419 -43.1519
lclavicle -2.38542e-014 -1.90833e-014
lhumerus -52.3988 -7.24976 78.6947
lradius 43.9614
lwrist -0.15966
lhand 4.92832 13.2691
lfingers 7.12502
lthumb 30.3016 40.8014
rfemur -12.5873 1.89763 22.6307
rtibia 47.6067
rfoot -3.21421 5.15655
rtoes -20.422
lfemur -18.6929 6.78523 -13.2154
ltibia 34.7295
lfoot -24.3504 9.43708
ltoes -5.42355
293
root -14.7751 17.8162 -1.56924 161.795 104.653 151.932
lowerback 18.643 0.699952 -3.34927
upperback 5.69491 0.521176 -1.29026
thorax -4.3153 0.380939 0.407836
lowerneck -1.45271 5.00558 9.36367
upperneck -0.985968 6.5467 -5.00213
head 0.450691 3.25217 -3.16538
rclavicle 1.90833e-014 -6.36111e-015
rhumerus -50.2632 15.2714 -80.9435
rradius 54.2274
rwrist -14.3112
rhand -11.0645 -13.9773
rfingers 7.12502
rthumb 14.9584 -43.4171
lclavicle 1.90833e-014 -6.36111e-015
lhumerus -51.5262 -7.34668 78.0151
lradius 44.2664
lwrist -0.443638
lhand 4.7752 12.9457
lfingers 7.12502
lthumb 30.1555 40.5046
rfemur -13.8285 1.96434 21.7841
rtibia 50.7226
rfoot -3.43398 4.49054
rtoes -19.8399
lfemur -17.4381 6.86071 -14.03
ltibia 34.1858
lfoot -24.8346 9.89979
ltoes -5.40237
294
root -14.6186 17.7862 -1.57524 164.387 104.64 154.809
lowerback 18.8518 0.635221 -4.34273
upperback 5.71759 0.239527 -1.55834
thorax -4.38728 0.249032 0.745154
lowerneck -1.25599 5.1317 9.14893
upperneck -1.33197 6.73391 -4.8166
head 0.303582 3.34429 -3.06828
rclavicle -1.11319e-014 1.11319e-014
rhumerus -50.4735 14.9484 -80.7781
rradius 53.4975
rwrist -13.8653
rhand -11.6686 -14.2951
rfingers 7.12502
rthumb 14.3763 -43.7773
lclavicle -1.11319e-014 1.11319e-014
lhumerus -50.5003 -7.36771 77.214
lradius 44.5173
lwrist -0.859458
lhand 4.61886 12.6212
lfingers 7.12502
lthumb 30.0064 40.2073
rfemur -15.1743 1.9642 20.9179
rtibia 53.7278
rfoot -3.95871 3.7778
rtoes -18.9999
lfemur -16.3578 6.92711 -14.9015
ltibia 33.7229
lfoot -25.2203 10.1824
ltoes -5.52822
